<?xml version="1.0" encoding="UTF-8" standalone="no"?>
<!-- Created with Inkscape (http://www.inkscape.org/) -->

<svg
   xmlns:dc="http://purl.org/dc/elements/1.1/"
   xmlns:cc="http://creativecommons.org/ns#"
   xmlns:rdf="http://www.w3.org/1999/02/22-rdf-syntax-ns#"
   xmlns:svg="http://www.w3.org/2000/svg"
   xmlns="http://www.w3.org/2000/svg"
   xmlns:sodipodi="http://sodipodi.sourceforge.net/DTD/sodipodi-0.dtd"
   xmlns:inkscape="http://www.inkscape.org/namespaces/inkscape"
   width="12"
   height="12"
   viewBox="0 0 3.1749999 3.1750001"
   version="1.1"
   id="svg2285"
   inkscape:version="0.92.2 (unknown)"
   sodipodi:docname="siga.svg">
  <defs
     id="defs2279" />
  <sodipodi:namedview
     id="base"
     pagecolor="#ffffff"
     bordercolor="#666666"
     borderopacity="1.0"
     inkscape:pageopacity="0.0"
     inkscape:pageshadow="2"
     inkscape:zoom="15.839192"
     inkscape:cx="6.9434327"
     inkscape:cy="5.7293163"
     inkscape:document-units="px"
     inkscape:current-layer="layer1"
     showgrid="false"
     units="px" />
  <metadata
     id="metadata2282">
    <rdf:RDF>
      <cc:Work
         rdf:about="">
        <dc:format>image/svg+xml</dc:format>
        <dc:type
           rdf:resource="http://purl.org/dc/dcmitype/StillImage" />
        <dc:title></dc:title>
      </cc:Work>
    </rdf:RDF>
  </metadata>
  <g
     inkscape:label="Camada 1"
     inkscape:groupmode="layer"
     id="layer1"
     transform="translate(0,-293.82499)">
    <g
       id="g2853"
       transform="translate(70.662645,243.81353)">
      <g
         transform="translate(33.734375,6.3311012)"
         id="g2846">
        <path
           style="fill:#dddddd;fill-opacity:1;stroke:none;stroke-width:0.0738216;stroke-linecap:round;stroke-linejoin:round;stroke-miterlimit:10"
           inkscape:connector-curvature="0"
           class="st0"
           d="m -101.48842,45.571157 -0.2725,-0.1195 c -0.076,0.4349 -0.4167,0.7785 -0.8496,0.8597 l -0.1362,0.2779 0.1308,0.259 c 0.7282,-0.087 1.3053,-0.6657 1.3906,-1.3946 z"
           id="path2257" />
        <path
           style="fill:#dddddd;fill-opacity:1;stroke:none;stroke-width:0.0738216;stroke-linecap:round;stroke-linejoin:round;stroke-miterlimit:10"
           inkscape:connector-curvature="0"
           class="st1"
           d="m -102.67092,43.681357 0.1268,0.2711 -0.1241,0.2624 c 0.4731,0.062 0.8483,0.4355 0.9127,0.9074 l 0.2664,0.1181 0.2671,-0.1181 c -0.068,-0.7665 -0.6811,-1.3758 -1.4489,-1.4409 z"
           id="path2259" />
        <path
           style="fill:#dddddd;fill-opacity:1;stroke:none;stroke-width:0.0738216;stroke-linecap:round;stroke-linejoin:round;stroke-miterlimit:10"
           inkscape:connector-curvature="0"
           class="st2"
           d="m -104.12522,45.053057 0.2611,0.1235 c 0.041,-0.4785 0.3993,-0.8671 0.8644,-0.9523 l 0.1255,-0.2711 -0.1255,-0.2658 c -0.7604,0.091 -1.355,0.7187 -1.3973,1.4925 z"
           id="path2261" />
        <path
           style="fill:#dddddd;fill-opacity:1;stroke:none;stroke-width:0.0738216;stroke-linecap:round;stroke-linejoin:round;stroke-miterlimit:10"
           inkscape:connector-curvature="0"
           class="st3"
           d="m -103.84002,45.513457 -0.2852,-0.1302 -0.2563,0.1228 c 0.1087,0.7221 0.7013,1.2851 1.4368,1.3483 l -0.1322,-0.2645 0.1335,-0.2691 c -0.4402,-0.057 -0.7959,-0.3825 -0.8966,-0.8073 z"
           id="path2263" />
      </g>
    </g>
  </g>
</svg>
